<mxfile host="app.diagrams.net" modified="2023-03-21T19:42:23.143Z" agent="5.0 (Windows NT 10.0; Win64; x64) AppleWebKit/537.36 (KHTML, like Gecko) Chrome/111.0.0.0 Safari/537.36 Edg/111.0.1661.44" etag="aIZDrbuSqKQrbK_0K2cK" version="20.8.19" type="github">
  <diagram id="C5RBs43oDa-KdzZeNtuy" name="Page-1">
    <mxGraphModel dx="788" dy="459" grid="1" gridSize="10" guides="1" tooltips="1" connect="1" arrows="1" fold="1" page="1" pageScale="1" pageWidth="827" pageHeight="1169" math="0" shadow="0">
      <root>
        <mxCell id="WIyWlLk6GJQsqaUBKTNV-0" />
        <mxCell id="WIyWlLk6GJQsqaUBKTNV-1" parent="WIyWlLk6GJQsqaUBKTNV-0" />
        <mxCell id="Jgj45valZhjJscfQBo9I-6" value="Flujo de Modulo web" style="text;html=1;strokeColor=none;fillColor=none;align=center;verticalAlign=middle;whiteSpace=wrap;rounded=0;" vertex="1" parent="WIyWlLk6GJQsqaUBKTNV-1">
          <mxGeometry x="334" y="20" width="160" height="30" as="geometry" />
        </mxCell>
        <mxCell id="Jgj45valZhjJscfQBo9I-22" value="Line" style="rounded=1;whiteSpace=wrap;html=1;fillColor=#f8cecc;strokeColor=#b85450;" vertex="1" parent="WIyWlLk6GJQsqaUBKTNV-1">
          <mxGeometry x="141" y="130" width="120" height="60" as="geometry" />
        </mxCell>
        <mxCell id="Jgj45valZhjJscfQBo9I-25" value="" style="endArrow=classic;html=1;rounded=0;entryX=0.5;entryY=0;entryDx=0;entryDy=0;" edge="1" parent="WIyWlLk6GJQsqaUBKTNV-1" target="Jgj45valZhjJscfQBo9I-26">
          <mxGeometry width="50" height="50" relative="1" as="geometry">
            <mxPoint x="200" y="190" as="sourcePoint" />
            <mxPoint x="200" y="270" as="targetPoint" />
          </mxGeometry>
        </mxCell>
        <mxCell id="Jgj45valZhjJscfQBo9I-26" value="Tipo Kiosk" style="rhombus;whiteSpace=wrap;html=1;fillColor=#dae8fc;strokeColor=#6c8ebf;" vertex="1" parent="WIyWlLk6GJQsqaUBKTNV-1">
          <mxGeometry x="141" y="260" width="120" height="110" as="geometry" />
        </mxCell>
        <mxCell id="Jgj45valZhjJscfQBo9I-27" value="" style="endArrow=classic;html=1;rounded=0;entryX=0;entryY=0.5;entryDx=0;entryDy=0;" edge="1" parent="WIyWlLk6GJQsqaUBKTNV-1" target="Jgj45valZhjJscfQBo9I-31">
          <mxGeometry relative="1" as="geometry">
            <mxPoint x="261" y="309.71" as="sourcePoint" />
            <mxPoint x="361" y="309.71" as="targetPoint" />
          </mxGeometry>
        </mxCell>
        <mxCell id="Jgj45valZhjJscfQBo9I-28" value="No" style="edgeLabel;resizable=0;html=1;align=center;verticalAlign=middle;" connectable="0" vertex="1" parent="Jgj45valZhjJscfQBo9I-27">
          <mxGeometry relative="1" as="geometry" />
        </mxCell>
        <mxCell id="Jgj45valZhjJscfQBo9I-29" value="" style="endArrow=classic;html=1;rounded=0;entryX=0.5;entryY=0;entryDx=0;entryDy=0;exitX=0.5;exitY=1;exitDx=0;exitDy=0;" edge="1" parent="WIyWlLk6GJQsqaUBKTNV-1" source="Jgj45valZhjJscfQBo9I-26" target="Jgj45valZhjJscfQBo9I-38">
          <mxGeometry relative="1" as="geometry">
            <mxPoint x="201" y="390" as="sourcePoint" />
            <mxPoint x="200" y="440" as="targetPoint" />
          </mxGeometry>
        </mxCell>
        <mxCell id="Jgj45valZhjJscfQBo9I-30" value="Si" style="edgeLabel;resizable=0;html=1;align=center;verticalAlign=middle;" connectable="0" vertex="1" parent="Jgj45valZhjJscfQBo9I-29">
          <mxGeometry relative="1" as="geometry" />
        </mxCell>
        <mxCell id="Jgj45valZhjJscfQBo9I-31" value="Meet" style="rhombus;whiteSpace=wrap;html=1;fillColor=#dae8fc;strokeColor=#6c8ebf;" vertex="1" parent="WIyWlLk6GJQsqaUBKTNV-1">
          <mxGeometry x="367" y="280" width="120" height="60" as="geometry" />
        </mxCell>
        <mxCell id="Jgj45valZhjJscfQBo9I-32" value="" style="endArrow=classic;html=1;rounded=0;entryX=0.5;entryY=0;entryDx=0;entryDy=0;" edge="1" parent="WIyWlLk6GJQsqaUBKTNV-1" target="Jgj45valZhjJscfQBo9I-36">
          <mxGeometry relative="1" as="geometry">
            <mxPoint x="426.71000000000004" y="340" as="sourcePoint" />
            <mxPoint x="426.71000000000004" y="420" as="targetPoint" />
          </mxGeometry>
        </mxCell>
        <mxCell id="Jgj45valZhjJscfQBo9I-33" value="Si" style="edgeLabel;resizable=0;html=1;align=center;verticalAlign=middle;" connectable="0" vertex="1" parent="Jgj45valZhjJscfQBo9I-32">
          <mxGeometry relative="1" as="geometry" />
        </mxCell>
        <mxCell id="Jgj45valZhjJscfQBo9I-34" value="" style="endArrow=classic;html=1;rounded=0;" edge="1" parent="WIyWlLk6GJQsqaUBKTNV-1">
          <mxGeometry relative="1" as="geometry">
            <mxPoint x="487" y="309.71000000000004" as="sourcePoint" />
            <mxPoint x="570" y="310" as="targetPoint" />
          </mxGeometry>
        </mxCell>
        <mxCell id="Jgj45valZhjJscfQBo9I-35" value="No" style="edgeLabel;resizable=0;html=1;align=center;verticalAlign=middle;" connectable="0" vertex="1" parent="Jgj45valZhjJscfQBo9I-34">
          <mxGeometry relative="1" as="geometry" />
        </mxCell>
        <mxCell id="Jgj45valZhjJscfQBo9I-36" value="Crea la atención con video llamada" style="rounded=0;whiteSpace=wrap;html=1;fillColor=#e1d5e7;strokeColor=#9673a6;" vertex="1" parent="WIyWlLk6GJQsqaUBKTNV-1">
          <mxGeometry x="367" y="420" width="120" height="60" as="geometry" />
        </mxCell>
        <mxCell id="Jgj45valZhjJscfQBo9I-37" value="Crea la atención sin video llamada" style="rounded=0;whiteSpace=wrap;html=1;fillColor=#e1d5e7;strokeColor=#9673a6;" vertex="1" parent="WIyWlLk6GJQsqaUBKTNV-1">
          <mxGeometry x="567" y="280" width="120" height="60" as="geometry" />
        </mxCell>
        <mxCell id="Jgj45valZhjJscfQBo9I-38" value="Meet" style="rounded=0;whiteSpace=wrap;html=1;perimeter=rectanglePerimeter;fillColor=#e1d5e7;strokeColor=#9673a6;" vertex="1" parent="WIyWlLk6GJQsqaUBKTNV-1">
          <mxGeometry x="160" y="530" width="82" height="61" as="geometry" />
        </mxCell>
        <mxCell id="Jgj45valZhjJscfQBo9I-44" value="" style="endArrow=classic;html=1;rounded=0;entryX=0.5;entryY=0;entryDx=0;entryDy=0;exitX=0.5;exitY=1;exitDx=0;exitDy=0;" edge="1" parent="WIyWlLk6GJQsqaUBKTNV-1" source="Jgj45valZhjJscfQBo9I-38" target="Jgj45valZhjJscfQBo9I-46">
          <mxGeometry relative="1" as="geometry">
            <mxPoint x="201" y="600" as="sourcePoint" />
            <mxPoint x="200.66" y="650" as="targetPoint" />
            <Array as="points">
              <mxPoint x="201" y="620" />
            </Array>
          </mxGeometry>
        </mxCell>
        <mxCell id="Jgj45valZhjJscfQBo9I-46" value="Atención Hibrida activa" style="rhombus;whiteSpace=wrap;html=1;fillColor=#dae8fc;strokeColor=#6c8ebf;" vertex="1" parent="WIyWlLk6GJQsqaUBKTNV-1">
          <mxGeometry x="141" y="700" width="120" height="120" as="geometry" />
        </mxCell>
        <mxCell id="Jgj45valZhjJscfQBo9I-47" value="" style="endArrow=classic;html=1;rounded=0;entryX=0;entryY=0.5;entryDx=0;entryDy=0;" edge="1" parent="WIyWlLk6GJQsqaUBKTNV-1" target="Jgj45valZhjJscfQBo9I-49">
          <mxGeometry relative="1" as="geometry">
            <mxPoint x="261" y="760" as="sourcePoint" />
            <mxPoint x="362" y="759.66" as="targetPoint" />
          </mxGeometry>
        </mxCell>
        <mxCell id="Jgj45valZhjJscfQBo9I-48" value="Si" style="edgeLabel;resizable=0;html=1;align=center;verticalAlign=middle;" connectable="0" vertex="1" parent="Jgj45valZhjJscfQBo9I-47">
          <mxGeometry relative="1" as="geometry" />
        </mxCell>
        <mxCell id="Jgj45valZhjJscfQBo9I-49" value="Crea atención sin video llamada y sin requerir Kiosk" style="rounded=0;whiteSpace=wrap;html=1;fillColor=#e1d5e7;strokeColor=#9673a6;" vertex="1" parent="WIyWlLk6GJQsqaUBKTNV-1">
          <mxGeometry x="367" y="730" width="120" height="60" as="geometry" />
        </mxCell>
        <mxCell id="Jgj45valZhjJscfQBo9I-51" value="Crea atención con video llamada y requiere Kiosk" style="rounded=0;whiteSpace=wrap;html=1;fillColor=#e1d5e7;strokeColor=#9673a6;" vertex="1" parent="WIyWlLk6GJQsqaUBKTNV-1">
          <mxGeometry x="141" y="900" width="120" height="60" as="geometry" />
        </mxCell>
        <mxCell id="Jgj45valZhjJscfQBo9I-53" value="" style="endArrow=classic;html=1;rounded=0;entryX=0.5;entryY=0;entryDx=0;entryDy=0;exitX=0.5;exitY=1;exitDx=0;exitDy=0;" edge="1" parent="WIyWlLk6GJQsqaUBKTNV-1" source="Jgj45valZhjJscfQBo9I-46" target="Jgj45valZhjJscfQBo9I-51">
          <mxGeometry relative="1" as="geometry">
            <mxPoint x="151" y="850" as="sourcePoint" />
            <mxPoint x="251" y="850" as="targetPoint" />
          </mxGeometry>
        </mxCell>
        <mxCell id="Jgj45valZhjJscfQBo9I-54" value="No" style="edgeLabel;resizable=0;html=1;align=center;verticalAlign=middle;" connectable="0" vertex="1" parent="Jgj45valZhjJscfQBo9I-53">
          <mxGeometry relative="1" as="geometry" />
        </mxCell>
      </root>
    </mxGraphModel>
  </diagram>
</mxfile>
